<?xml version="1.0" standalone="no"?>
<!DOCTYPE svg PUBLIC "-//W3C//DTD SVG 20010904//EN"
 "http://www.w3.org/TR/2001/REC-SVG-20010904/DTD/svg10.dtd">
<svg version="1.0" xmlns="http://www.w3.org/2000/svg"
 width="512.000000pt" height="512.000000pt" viewBox="0 0 512.000000 512.000000"
 preserveAspectRatio="xMidYMid meet">
<metadata>
Created by potrace 1.14, written by Peter Selinger 2001-2017
</metadata>
<g transform="translate(0.000000,512.000000) scale(0.100000,-0.100000)"
fill="#000000" stroke="none">
<path d="M3460 5113 c-562 -81 -961 -538 -958 -1095 l1 -118 -84 -92 c-46 -51
-91 -99 -99 -108 -8 -9 -58 -63 -110 -120 -52 -58 -122 -134 -156 -170 -33
-36 -83 -89 -110 -119 -27 -30 -56 -62 -64 -71 -112 -122 -209 -227 -223 -244
-18 -21 -143 -157 -267 -291 -36 -39 -89 -97 -119 -130 -29 -33 -79 -87 -110
-120 -31 -33 -98 -105 -148 -161 l-93 -101 39 -40 39 -40 -64 -68 c-53 -57
-168 -184 -209 -230 -5 -6 -37 -39 -69 -74 l-59 -63 92 -92 91 -92 -100 -103
c-145 -149 -213 -275 -240 -443 -12 -71 -9 -245 4 -266 3 -5 8 -23 11 -41 19
-106 108 -253 226 -370 181 -180 357 -255 584 -247 156 5 293 51 411 137 28
21 441 427 916 903 541 540 886 877 919 899 209 132 497 59 638 -162 51 -79
71 -148 71 -246 1 -73 -4 -100 -31 -167 -31 -78 -46 -97 -266 -318 l-203 -206
101 -102 c56 -56 105 -102 109 -102 3 0 105 100 226 222 264 267 310 336 348
520 52 254 -17 489 -203 681 -116 120 -220 183 -371 223 -70 19 -105 22 -200
20 -159 -5 -283 -44 -408 -127 -26 -18 -441 -425 -923 -906 -482 -481 -889
-883 -905 -894 -35 -24 -108 -59 -138 -66 -11 -2 -51 -7 -87 -10 -135 -11
-244 33 -360 144 -43 41 -92 96 -108 122 -92 143 -93 340 -3 481 28 43 191
214 198 208 2 -2 55 -54 118 -116 l114 -114 124 113 c68 62 128 118 134 123
46 44 168 152 175 154 5 2 26 -13 46 -33 l36 -36 30 28 c17 15 38 35 47 43 28
26 362 332 386 355 6 5 51 46 99 90 49 44 103 94 121 110 17 17 45 41 60 56
28 24 64 57 293 268 57 53 112 103 121 111 9 8 59 53 110 100 51 47 102 94
114 105 88 80 229 209 280 257 l61 57 125 2 c69 1 130 3 135 4 207 34 331 81
480 180 227 152 384 377 457 658 18 69 22 110 22 252 -1 151 -4 181 -27 266
-34 131 -77 226 -152 340 -69 103 -201 238 -297 301 -118 79 -266 141 -403
168 -58 12 -293 21 -345 13z m287 -308 c304 -58 542 -285 622 -595 16 -59 19
-100 17 -195 -4 -134 -7 -159 -31 -230 -19 -58 -84 -193 -96 -201 -4 -2 -256
243 -560 547 l-551 551 28 19 c65 44 197 96 269 106 22 3 42 7 44 8 9 9 197 1
258 -10z m276 -1453 c-10 -7 -50 -29 -88 -47 -100 -49 -219 -75 -338 -75 l-99
0 -350 350 -351 351 6 122 c6 149 47 289 115 395 15 23 22 17 569 -530 499
-498 551 -554 536 -566z m-1083 13 l264 -264 -24 -28 c-14 -15 -34 -35 -45
-44 -26 -22 -58 -51 -175 -159 -52 -49 -105 -97 -117 -108 -13 -10 -66 -59
-119 -108 -53 -49 -105 -96 -115 -104 -9 -9 -66 -61 -125 -115 -59 -55 -112
-104 -118 -110 -55 -50 -342 -311 -346 -315 -3 -3 -61 -57 -130 -120 -69 -63
-127 -119 -129 -123 -4 -10 -421 402 -421 416 0 4 10 18 23 31 25 26 191 205
219 239 11 12 43 47 71 77 29 30 99 107 157 170 105 115 179 196 234 254 15
17 58 64 95 105 36 41 77 86 91 100 14 14 70 76 125 136 55 61 125 137 156
170 31 33 74 80 95 105 39 45 55 60 64 60 3 0 124 -119 270 -265z m-1608
-1606 l121 -120 -34 -32 c-19 -18 -68 -62 -108 -98 l-74 -67 -108 109 c-60 60
-109 113 -109 117 0 4 25 34 55 67 31 33 72 79 93 102 20 24 39 43 40 43 2 0
58 -54 124 -121z"/>
<path d="M2446 3089 l-98 -99 105 -107 106 -106 106 106 106 106 -100 100
c-55 56 -106 101 -113 101 -7 -1 -57 -46 -112 -101z"/>
</g>
</svg>
